<svg xmlns="http://www.w3.org/2000/svg" width="35" height="35" viewBox="0 0 35 35"><defs><style>.a{fill:#141414;fill-rule:evenodd;}.b{fill:none;}</style></defs><g transform="translate(-576 -2512)"><g transform="translate(580 2516)"><g transform="translate(0)"><path class="a" d="M334.447,5302.6a13.871,13.871,0,0,0-11.658,21.392l-2.108,4.642a1.211,1.211,0,0,0,1.1,1.712,1.182,1.182,0,0,0,.321-.043l5.807-1.593a13.873,13.873,0,1,0,6.535-26.109Zm0,25.323a11.435,11.435,0,0,1-5.766-1.56,1.209,1.209,0,0,0-.611-.165,1.191,1.191,0,0,0-.32.044l-3.794,1.041,1.321-2.912a1.208,1.208,0,0,0-.12-1.208,11.448,11.448,0,1,1,9.29,4.76Z" transform="translate(-320.573 -5302.603)"/><g transform="translate(8.411 8.715)"><path class="a" d="M337.765,5317.223a1.937,1.937,0,0,0-1.65-.371c-.428.175-.7.846-.979,1.188a.41.41,0,0,1-.531.116,7.476,7.476,0,0,1-3.728-3.193.459.459,0,0,1,.058-.625,2.521,2.521,0,0,0,.678-1.1,2.407,2.407,0,0,0-.3-1.3,3.089,3.089,0,0,0-.961-1.448,1.317,1.317,0,0,0-1.43.213,2.905,2.905,0,0,0-1.006,2.3,3.263,3.263,0,0,0,.091.729,6.048,6.048,0,0,0,.7,1.614,12.892,12.892,0,0,0,.731,1.11,11.268,11.268,0,0,0,3.169,2.942,9.524,9.524,0,0,0,1.976.94,4.388,4.388,0,0,0,2.3.363,2.785,2.785,0,0,0,2.087-1.552,1.352,1.352,0,0,0,.1-.792C338.944,5317.812,338.205,5317.487,337.765,5317.223Z" transform="translate(-327.912 -5310.359)"/></g></g></g><rect class="b" width="35" height="35" transform="translate(576 2512)"/></g></svg>